<?xml version="1.0" standalone="no"?>
<!DOCTYPE svg PUBLIC "-//W3C//DTD SVG 20010904//EN"
 "http://www.w3.org/TR/2001/REC-SVG-20010904/DTD/svg10.dtd">
<svg version="1.0" xmlns="http://www.w3.org/2000/svg"
 width="512.000000pt" height="512.000000pt" viewBox="0 0 512.000000 512.000000"
 preserveAspectRatio="xMidYMid meet">

<g transform="translate(0.000000,512.000000) scale(0.100000,-0.100000)"
fill="#000000" stroke="none">
<path d="M2165 5106 c-172 -34 -337 -128 -485 -276 -215 -215 -300 -436 -302
-784 -1 -78 2 -159 6 -182 7 -39 5 -42 -29 -65 -85 -58 -121 -164 -112 -334 6
-119 25 -191 71 -269 32 -55 112 -121 167 -137 37 -12 42 -18 98 -133 78 -160
163 -285 271 -399 l88 -93 -196 -48 c-437 -108 -598 -185 -804 -384 -194 -188
-309 -395 -371 -667 -18 -81 -20 -133 -24 -530 -5 -469 -1 -519 42 -605 33
-66 100 -128 175 -164 l65 -31 1709 -3 c1487 -2 1717 0 1767 13 108 27 192 98
243 205 l31 65 0 470 c0 510 -3 544 -61 721 -107 330 -351 611 -659 759 -114
55 -188 79 -457 145 l-216 54 71 76 c103 109 191 238 272 396 l70 137 51 19
c95 34 178 127 210 235 24 78 34 207 24 290 -12 96 -49 166 -113 213 -54 40
-49 22 -71 275 -24 277 -63 433 -149 600 -116 223 -289 358 -543 422 -68 17
-112 18 -524 10 -30 -1 -98 2 -150 5 -66 5 -116 3 -165 -6z m1125 -706 c77
-39 152 -169 177 -304 18 -106 30 -367 22 -492 -18 -263 -113 -534 -268 -766
-185 -277 -423 -430 -668 -430 -106 0 -168 15 -272 65 -325 157 -594 590 -656
1054 -21 159 -19 203 15 306 62 184 145 296 269 361 91 48 138 49 176 4 32
-38 29 -71 -11 -123 -19 -26 -25 -42 -20 -60 12 -46 41 -47 203 -10 312 70
527 166 763 340 47 34 99 67 115 73 40 15 106 7 155 -18z m120 -2265 c0 -6
-172 -438 -383 -960 l-383 -950 -81 -3 -81 -3 -27 68 c-15 37 -189 470 -386
962 -198 491 -359 894 -357 896 2 1 108 28 237 60 l235 58 75 -26 c212 -74
400 -74 591 0 l75 29 243 -60 c133 -34 242 -65 242 -71z m-2170 -1046 l0 -871
-182 4 c-204 3 -232 11 -268 71 -19 30 -20 53 -20 469 0 352 3 451 15 510 49
236 156 430 321 580 53 49 125 108 132 108 1 0 2 -392 2 -871z m2741 796 c145
-122 263 -298 319 -480 47 -150 50 -184 50 -643 0 -416 -1 -439 -20 -469 -36
-60 -65 -68 -262 -71 l-178 -4 0 866 c0 476 3 866 6 866 3 0 41 -29 85 -65z"/>
<path d="M2110 2069 c-55 -22 -60 -39 -60 -230 0 -172 0 -177 24 -202 40 -43
64 -43 210 -2 l134 38 35 -22 c59 -36 123 -38 195 -6 l60 27 130 -37 c143 -41
168 -41 207 1 30 33 39 98 33 252 -5 130 -13 153 -67 178 -37 18 -19 21 -247
-42 l-61 -17 -53 26 c-68 34 -107 34 -181 1 l-59 -27 -128 37 c-140 39 -136
39 -172 25z"/>
<path d="M2487 1399 c-54 -41 -71 -104 -42 -159 61 -118 238 -77 238 55 0 73
-54 125 -130 125 -22 -1 -49 -9 -66 -21z"/>
<path d="M2526 959 c-50 -14 -96 -72 -96 -119 0 -37 31 -89 65 -110 112 -69
240 65 168 177 -29 44 -87 67 -137 52z"/>
</g>
</svg>
